<svg width="514" height="160" viewBox="0 0 514 160" fill="none" xmlns="http://www.w3.org/2000/svg">
<path d="M377.843 11.1564C355.579 5.83798 307.624 3.41485 293.915 36.2696C280.207 69.1243 288.203 124.715 293.915 148.404C374.31 165.043 394.002 114.499 393.798 87.1472M393.798 87.1472L337.426 115.313M393.798 87.1472L407.271 148.404" stroke="white" stroke-width="15"/>
<path d="M90.7542 104.266H110.119M110.119 104.266H156.04C171.408 104.266 182.136 89.0397 176.964 74.5679V74.5679C173.805 65.7264 165.429 59.8251 156.04 59.8251H147.792C132.271 59.8251 118.729 70.3582 114.909 85.4021L110.119 104.266ZM110.119 104.266L114.115 121.039C118.388 138.976 134.415 151.633 152.853 151.633V151.633C164.781 151.633 176.081 146.286 183.645 137.064L187.577 132.268" stroke="white" stroke-width="15"/>
<path d="M411.177 104.266H430.541M430.541 104.266H476.462C491.83 104.266 502.559 89.0397 497.387 74.5679V74.5679C494.227 65.7264 485.851 59.8251 476.462 59.8251H468.215C452.693 59.8251 439.151 70.3582 435.331 85.4021L430.541 104.266ZM430.541 104.266L434.537 121.039C438.81 138.976 454.838 151.633 473.276 151.633V151.633C485.204 151.633 496.503 146.286 504.067 137.064L508 132.268" stroke="white" stroke-width="15"/>
<path d="M194.402 52.5806L222.673 146.388C223.637 149.585 226.581 151.772 229.92 151.772V151.772C233.265 151.772 236.214 149.575 237.171 146.369L265.174 52.5806" stroke="white" stroke-width="15"/>
<path d="M83.7868 16.0809V59.5645M83.7868 59.5645V115.935C83.7868 135.804 67.6791 151.912 47.8093 151.912V151.912C37.6059 151.912 27.8824 147.58 21.0593 139.993L19 137.703C11.9182 129.829 8 119.614 8 109.023V102.453C8 91.863 11.9182 81.6472 19 73.7731V73.7731C27.1339 64.7293 38.7253 59.5645 50.8888 59.5645H83.7868Z" stroke="white" stroke-width="15"/>
</svg>
